<svg version="1.2" baseProfile="tiny" id="Laag_1" xmlns="http://www.w3.org/2000/svg" xmlns:xlink="http://www.w3.org/1999/xlink"
	 x="0px" y="0px" viewBox="0 0 1200 1200" overflow="visible" xml:space="preserve">
<g>
	<path fill="#005942" d="M60,60v917.4c0,89.6,72.9,162.6,162.6,162.6h754.9c89.6,0,162.6-72.9,162.6-162.6V60H60z M1084.7,977.4
		c0,59.1-48.1,107.2-107.2,107.2H222.6c-59.1,0-107.2-48.1-107.2-107.2V115.3h969.4V977.4z"/>
	<path fill="#005942" d="M258.8,726.6c63.3,0,109.1-26,109.1-104.1v-56.4c0-2.5-2.1-4.6-4.6-4.6H262.6c-2.5,0-4.6,2.1-4.6,4.6v49.8
		h46.6v5.4c0,32.6-5.8,48.1-45.8,48.1c-31.1,0-40-21.4-40-48.9v-85.4c0-28,9.3-47.4,40-47.4c30.3,0,37.3,11.7,39.2,38.1l63.9,0
		c2.7,0,4.9-2.5,4.7-5.2c-5.8-72.2-39.3-90.5-107.8-91.1c-63.3-0.5-109.9,29.9-109.9,98.2v99.4C148.9,695.1,194.7,726.6,258.8,726.6
		z"/>
	<path fill="#005942" d="M842.7,723.1h100.9c67.6,0,110.1-29.1,110.1-97.1v-97.1c0-68.3-42.6-97.1-110.1-97.1H842.8
		c-2.5,0-4.6,2.1-4.6,4.6v282C838.1,721,840.2,723.1,842.7,723.1z M908.5,491.3h35.2c32.8,0,40.2,12.8,40.2,45v84.3
		c0,31.8-7.4,45.4-40.2,45.4h-35.2V491.3z"/>
	<path fill="#005942" d="M456,718.5v-99.1h26l49.6,101.1c0.8,1.6,2.4,2.6,4.1,2.6h137.9V556.9h0.8L752,723.1h64.1
		c2.5,0,4.6-2.1,4.6-4.6v-282c0-2.5-2.1-4.6-4.6-4.6h-62.6v159.2h-0.8l-75.3-159.2h-67.6c-2.5,0-4.6,2.1-4.6,4.6v285.4l-55.3-113.7
		c35.7-14.4,44.3-40,44.3-69.1v-26c0-54.2-27.9-80.2-98.6-81.1v59.4h24.3c2.5,0,4.6,2.1,4.6,4.6v46.8c0,11.5-9.2,20.8-20.6,20.8
		h-32.7c-11.4,0-20.7-9.3-20.7-20.8v-46.8c0-2.5,2.1-4.6,4.6-4.6h24.2v-59.4h-88.6c-2.5,0-4.6,2.1-4.6,4.6v286.6h65.3
		C453.9,723.1,456,721,456,718.5z"/>
	<path fill="#005942" d="M216.5,1040.4h71.5l35.5-175.5h0.8l35.2,175.5h67.9c2.1,0,4-1.4,4.5-3.5l35.1-142.8v146.3h65.7
		c2.6,0,4.6-2.1,4.6-4.6v-99.1h26.2l49.9,101.1c0.8,1.6,2.4,2.6,4.1,2.6H756V937.9l14.1-19.8l58.9,119.7c0.8,1.6,2.4,2.6,4.1,2.6
		h24.2h49.1h142.8c2.5,0,4.6-2.1,4.6-4.6v-53.6h-116l110.9-172.4v-56c0-2.5-2.1-4.6-4.6-4.6h-142h-49.5h-25.5L756,849.4V749.2h-65.7
		c-2.5,0-4.6,2.1-4.6,4.6v282l-54-110.4c35.9-14.4,44.5-40,44.5-69.1v-26c0-54.1-28-80.1-98.9-81.1V810h24.3c2.5,0,4.6,2.1,4.6,4.6
		v46.8c0,11.5-9.2,20.8-20.6,20.8h-32.7c-11.4,0-20.7-9.3-20.7-20.8v-46.8c0-2.5,2.1-4.6,4.6-4.6H561v-60.8h-58.6h-35.6h-29.1
		c-2.2,0-4.1,1.5-4.5,3.6l-37.5,173.8H395L359,749.2h-68.8L254,926.6h-0.8l-37.9-177.5h-64.4c-3,0-5.2,2.8-4.5,5.7L216.5,1040.4z
		 M857.1,809.8h111.1l-99.4,154.4l-50.4-102.4L857.1,809.8z"/>
</g>
</svg>